<mxfile host="app.diagrams.net" modified="2024-04-09T10:18:45.389Z" agent="Mozilla/5.0 (Windows NT 10.0; Win64; x64) AppleWebKit/537.36 (KHTML, like Gecko) Chrome/123.0.0.0 Safari/537.36" etag="-EDcOuG-aOx4-6FmlwBd" version="24.2.2" type="device">
  <diagram name="Página-1" id="XQLo_PcZcjvprIOAkB2B">
    <mxGraphModel dx="2074" dy="1180" grid="0" gridSize="10" guides="1" tooltips="1" connect="1" arrows="1" fold="1" page="0" pageScale="1" pageWidth="827" pageHeight="1169" math="0" shadow="0">
      <root>
        <mxCell id="0" />
        <mxCell id="1" parent="0" />
        <mxCell id="4k0aS4h51GzQkVcGG57v-1" value="Pantalla de inicio" style="rounded=0;whiteSpace=wrap;html=1;" parent="1" vertex="1">
          <mxGeometry x="115" y="-119" width="120" height="60" as="geometry" />
        </mxCell>
        <mxCell id="4k0aS4h51GzQkVcGG57v-2" value="" style="endArrow=classic;html=1;rounded=0;fontSize=12;startSize=8;endSize=8;curved=1;exitX=0.5;exitY=1;exitDx=0;exitDy=0;entryX=0.5;entryY=0;entryDx=0;entryDy=0;" parent="1" source="4k0aS4h51GzQkVcGG57v-1" target="4k0aS4h51GzQkVcGG57v-3" edge="1">
          <mxGeometry width="50" height="50" relative="1" as="geometry">
            <mxPoint x="217" y="222" as="sourcePoint" />
            <mxPoint x="103" y="63" as="targetPoint" />
          </mxGeometry>
        </mxCell>
        <mxCell id="4k0aS4h51GzQkVcGG57v-3" value="" style="swimlane;startSize=0;" parent="1" vertex="1">
          <mxGeometry x="-73" y="47" width="498" height="441" as="geometry" />
        </mxCell>
        <mxCell id="4k0aS4h51GzQkVcGG57v-4" value="Nombre del juego" style="rounded=0;whiteSpace=wrap;html=1;" parent="4k0aS4h51GzQkVcGG57v-3" vertex="1">
          <mxGeometry x="189" y="20" width="120" height="60" as="geometry" />
        </mxCell>
        <mxCell id="4k0aS4h51GzQkVcGG57v-5" value="Opción jugadores a elegir" style="rounded=0;whiteSpace=wrap;html=1;" parent="4k0aS4h51GzQkVcGG57v-3" vertex="1">
          <mxGeometry x="16" y="106" width="120" height="60" as="geometry" />
        </mxCell>
        <mxCell id="4k0aS4h51GzQkVcGG57v-6" value="Opción dados a elegir" style="rounded=0;whiteSpace=wrap;html=1;" parent="4k0aS4h51GzQkVcGG57v-3" vertex="1">
          <mxGeometry x="189" y="106" width="120" height="60" as="geometry" />
        </mxCell>
        <mxCell id="4k0aS4h51GzQkVcGG57v-7" value="Opción fichas a elegir" style="rounded=0;whiteSpace=wrap;html=1;" parent="4k0aS4h51GzQkVcGG57v-3" vertex="1">
          <mxGeometry x="358" y="106" width="120" height="60" as="geometry" />
        </mxCell>
        <mxCell id="4k0aS4h51GzQkVcGG57v-8" value="Botón Jugar" style="rounded=0;whiteSpace=wrap;html=1;" parent="4k0aS4h51GzQkVcGG57v-3" vertex="1">
          <mxGeometry x="189" y="218" width="120" height="60" as="geometry" />
        </mxCell>
        <mxCell id="4k0aS4h51GzQkVcGG57v-9" value="Descripción, controles del juego y reglas" style="rounded=0;whiteSpace=wrap;html=1;" parent="4k0aS4h51GzQkVcGG57v-3" vertex="1">
          <mxGeometry x="189" y="340" width="120" height="60" as="geometry" />
        </mxCell>
        <mxCell id="4k0aS4h51GzQkVcGG57v-10" value="Pantalla del juego" style="rounded=0;whiteSpace=wrap;html=1;" parent="1" vertex="1">
          <mxGeometry x="801" y="-124" width="120" height="60" as="geometry" />
        </mxCell>
        <mxCell id="4k0aS4h51GzQkVcGG57v-11" value="" style="endArrow=classic;html=1;rounded=0;fontSize=12;startSize=8;endSize=8;curved=1;exitX=0.5;exitY=1;exitDx=0;exitDy=0;entryX=0.5;entryY=0;entryDx=0;entryDy=0;" parent="1" source="4k0aS4h51GzQkVcGG57v-3" target="4k0aS4h51GzQkVcGG57v-10" edge="1">
          <mxGeometry width="50" height="50" relative="1" as="geometry">
            <mxPoint x="640" y="221" as="sourcePoint" />
            <mxPoint x="272" y="594" as="targetPoint" />
            <Array as="points">
              <mxPoint x="161" y="617" />
              <mxPoint x="512" y="566" />
              <mxPoint x="600" y="-213" />
            </Array>
          </mxGeometry>
        </mxCell>
        <mxCell id="4k0aS4h51GzQkVcGG57v-12" value="" style="swimlane;startSize=0;" parent="1" vertex="1">
          <mxGeometry x="612" y="49" width="498" height="410" as="geometry" />
        </mxCell>
        <mxCell id="4k0aS4h51GzQkVcGG57v-13" value="Nombre del juego" style="rounded=0;whiteSpace=wrap;html=1;" parent="4k0aS4h51GzQkVcGG57v-12" vertex="1">
          <mxGeometry x="195" y="62" width="120" height="60" as="geometry" />
        </mxCell>
        <mxCell id="4k0aS4h51GzQkVcGG57v-14" value="Marcador de los jugadores" style="rounded=0;whiteSpace=wrap;html=1;" parent="4k0aS4h51GzQkVcGG57v-12" vertex="1">
          <mxGeometry x="22" y="186" width="120" height="60" as="geometry" />
        </mxCell>
        <mxCell id="4k0aS4h51GzQkVcGG57v-15" value="Tablero" style="rounded=0;whiteSpace=wrap;html=1;" parent="4k0aS4h51GzQkVcGG57v-12" vertex="1">
          <mxGeometry x="195" y="148" width="120" height="60" as="geometry" />
        </mxCell>
        <mxCell id="4k0aS4h51GzQkVcGG57v-16" value="Marcador jugador en activo" style="rounded=0;whiteSpace=wrap;html=1;" parent="4k0aS4h51GzQkVcGG57v-12" vertex="1">
          <mxGeometry x="22" y="106" width="120" height="60" as="geometry" />
        </mxCell>
        <mxCell id="4k0aS4h51GzQkVcGG57v-17" value="Botón resetear" style="rounded=0;whiteSpace=wrap;html=1;" parent="4k0aS4h51GzQkVcGG57v-12" vertex="1">
          <mxGeometry x="195" y="260" width="120" height="60" as="geometry" />
        </mxCell>
        <mxCell id="4k0aS4h51GzQkVcGG57v-21" value="Dados" style="rounded=0;whiteSpace=wrap;html=1;" parent="4k0aS4h51GzQkVcGG57v-12" vertex="1">
          <mxGeometry x="368" y="148" width="120" height="60" as="geometry" />
        </mxCell>
        <mxCell id="4k0aS4h51GzQkVcGG57v-20" value="" style="endArrow=classic;html=1;rounded=0;fontSize=12;startSize=8;endSize=8;curved=1;exitX=0.5;exitY=1;exitDx=0;exitDy=0;entryX=0.5;entryY=0;entryDx=0;entryDy=0;" parent="1" source="4k0aS4h51GzQkVcGG57v-10" target="4k0aS4h51GzQkVcGG57v-12" edge="1">
          <mxGeometry width="50" height="50" relative="1" as="geometry">
            <mxPoint x="640" y="221" as="sourcePoint" />
            <mxPoint x="690" y="171" as="targetPoint" />
          </mxGeometry>
        </mxCell>
      </root>
    </mxGraphModel>
  </diagram>
</mxfile>
